# xmcd
#
# Track frame offsets: 
#        150
#        12549
#        37519
#        57071
#        83648
#        106281
#        141520
#        157905
#        180996
#        200059
#
# Disc length: 2843 seconds
#
# Revision: 0
# Processed by: cddbd v1.5.2PL0 Copyright (c) Steve Scherf et al.
# Submitted via: ExactAudioCopy v0.99pb5
#
DISCID=750b190a
DTITLE=Norman Sylvester Band - Blue Stains On My Hands
DYEAR=2012
DGENRE=Blues
TTITLE0=Outsourced At The Top
TTITLE1=Blues Stains On My Hands
TTITLE2=Blues Is In Control
TTITLE3=Bad Weather
TTITLE4=Fine As Frog Hair
TTITLE5=If You Didn't Want Me To Have The Blues
TTITLE6=Hip Hop Mama
TTITLE7=Please Lie To Me
TTITLE8=S-E-N-D
TTITLE9=Senior Moments
EXTD=
EXTT0=
EXTT1=
EXTT2=
EXTT3=
EXTT4=
EXTT5=
EXTT6=
EXTT7=
EXTT8=
EXTT9=
PLAYORDER=
